<svg xmlns="http://www.w3.org/2000/svg" enable-background="new 0 0 32 32" viewBox="0 0 32 32" id="admin"><path fill="#a9d2ed" d="M22,29H6c-1.6569,0-3-1.3431-3-3V6c0-1.6569,1.3431-3,3-3h16c1.6569,0,3,1.3431,3,3v20C25,27.6569,23.6569,29,22,29z"></path><path fill="#36a0e8" d="M16.5 19h-9C7.2239 19 7 19.2239 7 19.5v1C7 20.7761 7.2239 21 7.5 21h9c.2761 0 .5-.2239.5-.5v-1C17 19.2239 16.7761 19 16.5 19zM7.5 25h11c.2761 0 .5-.2239.5-.5v-1c0-.2761-.2239-.5-.5-.5h-11C7.2239 23 7 23.2239 7 23.5v1C7 24.7761 7.2239 25 7.5 25zM18.5 11h-11C7.2239 11 7 11.2239 7 11.5v1C7 12.7761 7.2239 13 7.5 13h11c.2761 0 .5-.2239.5-.5v-1C19 11.2239 18.7761 11 18.5 11zM18.5 7h-11C7.2239 7 7 7.2239 7 7.5v1C7 8.7761 7.2239 9 7.5 9h11C18.7761 9 19 8.7761 19 8.5v-1C19 7.2239 18.7761 7 18.5 7zM16.5 15h-9C7.2239 15 7 15.2239 7 15.5v1C7 16.7761 7.2239 17 7.5 17h9c.2761 0 .5-.2239.5-.5v-1C17 15.2239 16.7761 15 16.5 15z"></path><path fill="#70b7e8" d="M26.48,15.6847C26.8076,15.204,27,14.6243,27,14c0-1.6543-1.3457-3-3-3s-3,1.3457-3,3c0,0.6243,0.1924,1.204,0.52,1.6847C20.022,16.5494,19,18.1498,19,20c0,0.5522,0.4473,1,1,1h8c0.5527,0,1-0.4478,1-1C29,18.1498,27.978,16.5494,26.48,15.6847z"></path></svg>