<svg xmlns="http://www.w3.org/2000/svg" viewBox="0 0 64 64" id="password"><path fill="#1d1f47" d="M59,8H5A1,1,0,0,0,4,9V55a1,1,0,0,0,1,1H59a1,1,0,0,0,1-1V9A1,1,0,0,0,59,8ZM58,54H6V10H58Z"></path><path fill="#05f" d="M36,35H28a3,3,0,0,1-3-3V27a3,3,0,0,1,3-3h8a3,3,0,0,1,3,3v5A3,3,0,0,1,36,35Zm-8-9a1,1,0,0,0-1,1v5a1,1,0,0,0,1,1h8a1,1,0,0,0,1-1V27a1,1,0,0,0-1-1Z"></path><path fill="#05f" d="M36 26H28a1 1 0 0 1-1-1V24a5 5 0 0 1 10 0v1A1 1 0 0 1 36 26zm-7-2h6a3 3 0 0 0-6 0zM32 31a1 1 0 0 1-1-1V29a1 1 0 0 1 2 0v1A1 1 0 0 1 32 31z"></path><path fill="#1d1f47" d="M59 8H5A1 1 0 0 0 4 9v8a1 1 0 0 0 1 1H20.08a1 1 0 0 0 .63-.22L25.36 14H59a1 1 0 0 0 1-1V9A1 1 0 0 0 59 8zm-1 4H25l-.21 0a1.09 1.09 0 0 0-.42.2L19.73 16H6V10H58zM50 49H14a1 1 0 0 1-1-1V39a1 1 0 0 1 1-1H50a1 1 0 0 1 1 1v9A1 1 0 0 1 50 49zM15 47H49V40H15z"></path><circle cx="19.5" cy="43.5" r="1.5" fill="#05f"></circle><circle cx="24.5" cy="43.5" r="1.5" fill="#05f"></circle><circle cx="29.5" cy="43.5" r="1.5" fill="#05f"></circle><circle cx="34.5" cy="43.5" r="1.5" fill="#05f"></circle><circle cx="39.5" cy="43.5" r="1.5" fill="#05f"></circle><circle cx="44.5" cy="43.5" r="1.5" fill="#05f"></circle><path fill="#05f" d="M60 9a1 1 0 0 0-1-1H28.81l2.37-2.37A19.22 19.22 0 0 1 60 31zM35.19 56l-2.37 2.37A19.22 19.22 0 0 1 4 33V55a1 1 0 0 0 1 1z" opacity=".3"></path></svg>