<svg xmlns="http://www.w3.org/2000/svg" data-name="Layer 1" viewBox="0 0 512 512" id="profile"><circle cx="256" cy="256" r="256" fill="#c0c6d1"></circle><circle cx="256" cy="142.83" r="84.2" fill="#f6f7f8"></circle><path fill="#e9ebef" d="M256,453.36h0a143.27,143.27,0,0,1-137.43-102.8h0C103.49,299.35,141.88,248,195.27,248H316.73c53.39,0,91.78,51.33,76.7,102.54h0A143.27,143.27,0,0,1,256,453.36Z"></path><path fill="#37a1f7" d="M345.1,381.26,325.82,389a15,15,0,0,1-11.12,0l-19.27-7.76a9.81,9.81,0,0,1-6.17-9.11V319.23a8,8,0,0,1,7.95-7.94h46.1a8,8,0,0,1,7.95,7.94v52.92A9.81,9.81,0,0,1,345.1,381.26Z"></path></svg>